<svg width="200" height="200" viewBox="0 0 200 200" fill="none" xmlns="http://www.w3.org/2000/svg">
<path d="M88.537 180.291H88.541L108.496 159.659H134.244C144.822 159.659 153.398 151.081 153.398 140.505V73.4409C153.398 62.8629 144.822 54.2881 134.244 54.2881H44.152C33.576 54.2881 25 62.8629 25 73.4409V140.505C25 151.081 33.576 159.659 44.152 159.659H68.582L88.537 180.291Z" fill="url(#paint0_linear_2866_756)"/>
<path d="M25 131.663V140.505C25 151.086 33.576 159.659 44.152 159.659H68.582L88.537 180.296L108.496 159.659H134.244C144.822 159.659 153.398 151.086 153.398 140.505V131.663C134.947 128.653 112.894 126.901 89.199 126.901C65.502 126.901 43.447 128.653 25 131.663Z" fill="url(#paint1_linear_2866_756)"/>
<path d="M67.319 104.925C67.319 109.565 63.561 113.323 58.926 113.323C54.289 113.323 50.528 109.564 50.528 104.925C50.528 100.29 54.29 96.5312 58.926 96.5312C63.561 96.5312 67.319 100.29 67.319 104.925ZM127.869 104.925C127.869 109.565 124.113 113.323 119.476 113.323C114.839 113.323 111.078 109.564 111.078 104.925C111.078 100.29 114.84 96.5312 119.476 96.5312C124.112 96.5312 127.869 100.29 127.869 104.925ZM97.596 104.925C97.596 109.565 93.836 113.323 89.201 113.323C84.56 113.323 80.803 109.564 80.803 104.925C80.803 100.29 84.561 96.5312 89.201 96.5312C93.836 96.5312 97.596 100.29 97.596 104.925Z" fill="url(#paint2_linear_2866_756)"/>
<path d="M106.465 35.9653C106.465 27.1483 113.615 20 122.434 20H159.772C168.588 20 175.737 27.1473 175.737 35.9653V68.1113C175.737 76.9263 168.589 84.0762 159.772 84.0762H126.163L106.466 95.9102V35.9653H106.465Z" fill="#F37B7F"/>
<path d="M106.465 54.2881V95.9092L126.162 84.0752H153.398V73.4409C153.398 62.8629 144.826 54.2881 134.246 54.2881H106.465Z" fill="url(#paint3_linear_2866_756)"/>
<path d="M149.014 66.4712C148.743 70.6052 145.301 73.874 141.1 73.874C136.897 73.874 133.457 70.6042 133.184 66.4712H141.1H149.014ZM141.1 63.8311H122.698C120.608 63.8311 120.497 60.7083 122.231 58.7373C123.975 56.7633 126.284 51.6721 126.284 45.6611C126.284 39.6511 129.184 28.7549 141.1 28.7549C153.016 28.7549 155.918 39.6511 155.918 45.6611C155.918 51.6721 158.227 56.7643 159.967 58.7373C161.707 60.7083 161.59 63.8311 159.502 63.8311H141.1Z" fill="#FDE9EA"/>
<defs>
<linearGradient id="paint0_linear_2866_756" x1="9.4855" y1="98.0175" x2="164.442" y2="127.067" gradientUnits="userSpaceOnUse">
<stop stop-color="#2F1BE7"/>
<stop offset="0.189" stop-color="#4531EA"/>
<stop offset="1" stop-color="#C468F8"/>
</linearGradient>
<linearGradient id="paint1_linear_2866_756" x1="26.1249" y1="123.087" x2="150.475" y2="166.207" gradientUnits="userSpaceOnUse">
<stop stop-color="#4017A5"/>
<stop offset="1" stop-color="#2A8BF4"/>
</linearGradient>
<linearGradient id="paint2_linear_2866_756" x1="127.869" y1="104.927" x2="50.5275" y2="104.927" gradientUnits="userSpaceOnUse">
<stop stop-color="#00F59F"/>
<stop offset="1" stop-color="#4DD8DB"/>
</linearGradient>
<linearGradient id="paint3_linear_2866_756" x1="103.886" y1="78.8095" x2="152.134" y2="60.9796" gradientUnits="userSpaceOnUse">
<stop stop-color="#2F1BE7"/>
<stop offset="0.2966" stop-color="#2F1BE7"/>
<stop offset="1" stop-color="#AE5EAA"/>
</linearGradient>
</defs>
</svg>
